<?xml version="1.0" encoding="utf-8"?>
<!-- Generator: Adobe Illustrator 16.0.0, SVG Export Plug-In . SVG Version: 6.00 Build 0)  -->
<!DOCTYPE svg PUBLIC "-//W3C//DTD SVG 1.1//EN" "http://www.w3.org/Graphics/SVG/1.1/DTD/svg11.dtd">
<svg version="1.1" id="Layer_1" xmlns="http://www.w3.org/2000/svg" xmlns:xlink="http://www.w3.org/1999/xlink" x="0px" y="0px"
	 width="676.688px" height="720px" viewBox="0 0 676.688 720" enable-background="new 0 0 676.688 720" xml:space="preserve">
<g>
	<defs>
		<rect id="SVGID_1_" width="676.688" height="720"/>
	</defs>
	<clipPath id="SVGID_2_">
		<use xlink:href="#SVGID_1_"  overflow="visible"/>
	</clipPath>
	<path clip-path="url(#SVGID_2_)" fill="#F172A4" d="M136.919,510.734l-4.583,1.221l-2.238,16.896l4.144-1.115
		c5.094-1.371,8.947-5.759,9.586-10.917c0.31-2.493-0.182-4.332-1.412-5.404C141.183,510.34,139.284,510.104,136.919,510.734"/>
	<polygon clip-path="url(#SVGID_2_)" fill="#F172A4" points="213.774,503.994 219.652,503.054 217.292,496.286 	"/>
	<path clip-path="url(#SVGID_2_)" fill="#F172A4" d="M323.441,567.284c-0.309,0-0.432,1.275-0.432,1.479
		c-0.306,3.982-0.552,6.534-0.798,9.801c-0.062,0.356,0.306,0.408,1.23,0.408c0.799,0,1.415,0.103,1.352-0.356
		c-0.307-3.778-0.492-5.922-0.799-9.953C323.995,568.407,323.872,567.284,323.441,567.284"/>
	<path clip-path="url(#SVGID_2_)" fill="#F172A4" d="M179.263,500.608l-5.927,1.259l-0.776,7.221l5.689-1.215
		c2.768-0.589,4.631-2.392,4.863-4.701c0.109-1.082-0.08-1.802-0.553-2.225C181.948,500.397,180.805,500.282,179.263,500.608"/>
	<path clip-path="url(#SVGID_2_)" fill="#F172A4" d="M222.616,353.158c1.575-23.229-15.041-42.045-39.069-38.362
		c-9.875,1.554-14.825,2.389-24.672,4.177c-0.253,2.242-0.481,4.485-0.727,6.727c8.482-1.523,22.005-3.896,25.517-4.181
		c5.604-0.451,12.055-0.452,17.423,3.01c1.469,0.946,1.892,2.905,0.945,4.375c-0.948,1.467-2.907,1.894-4.375,0.943
		c-3.769-2.429-8.705-2.401-13.481-2.019c-3.218,0.262-16.884,2.65-26.737,4.43c-2.833,26.413-5.342,52.86-8.299,79.26
		c10.81-1.926,16.246-2.825,27.047-4.497C204.044,404.35,220.888,378.658,222.616,353.158"/>
	<path clip-path="url(#SVGID_2_)" fill="#F172A4" d="M338.721,232.217L338.721,232.217c-162.682,0-270.192,44.263-270.192,44.263
		L27.98,517.317l15.085,18.036l46.757-14.405l-7.501,47.296c0,0,128.729-45.784,256.398-45.784h0.001
		c127.669,0,256.397,45.784,256.397,45.784l-7.501-47.296l46.756,14.405l15.085-18.036L608.91,276.48
		C608.91,276.48,501.4,232.217,338.721,232.217 M439.929,271c1.739-0.136,3.262,1.176,3.393,2.918
		c1.076,14.28,1.501,22.115,2.083,36.355c5.82,0.604,9.441,1.013,15.95,1.791c1.735,0.209,2.975,1.783,2.767,3.519
		c-0.191,1.609-1.559,2.789-3.139,2.789c-0.125,0-0.252-0.008-0.379-0.022c-7.425-0.888-11.071-1.293-18.573-2.063
		c-1.566-0.16-2.776-1.447-2.84-3.021c-0.649-16.205-1.036-23.681-2.18-38.872C436.878,272.65,438.185,271.131,439.929,271
		 M275.555,272.737c0.093-1.747,1.562-3.076,3.329-2.991c1.746,0.093,3.085,1.584,2.991,3.328
		c-0.741,13.862-1.013,21.201-1.363,34.811c0.163-0.014,0.329-0.026,0.496-0.038c3.662-0.288,7.813-0.612,11.92-0.736
		c1.795-0.034,3.206,1.321,3.259,3.068c0.053,1.748-1.32,3.206-3.068,3.259c-3.956,0.119-8.026,0.437-11.618,0.719
		c-1.469,0.116-2.832,0.221-4.03,0.301c-0.071,0.005-0.142,0.008-0.212,0.008c-0.813,0-1.599-0.314-2.19-0.881
		c-0.642-0.615-0.996-1.473-0.974-2.363C274.488,295.469,274.754,287.699,275.555,272.737 M80.662,342.768
		c2.867-16.426,4.249-24.003,7.311-39.394c0.339-1.716,2.004-2.822,3.721-2.489c1.715,0.342,2.828,2.008,2.487,3.722
		c-2.732,13.739-4.122,21.23-6.438,34.421c4.134-1.049,7.379-1.834,12.664-3.075c1.694-0.402,3.404,0.655,3.805,2.358
		c0.399,1.702-0.656,3.405-2.359,3.805c-7.065,1.659-10.456,2.495-17.279,4.261c-0.263,0.068-0.529,0.1-0.793,0.1
		c-0.787,0-1.555-0.293-2.147-0.839C80.844,344.908,80.479,343.829,80.662,342.768 M78.923,429.285
		c7.428-1.919,11.217-2.844,18.89-4.624c5.107-32.762,9.842-65.579,14.959-98.339c-7.015,1.648-10.492,2.504-17.35,4.278
		c2.745-15.728,4.168-23.593,7.297-39.321c28.195-6.931,56.43-12.662,85.058-17.471c48.894-7.32,82.343,26.951,81.144,75.217
		c-1.391,56.008-42.694,92.538-96.95,99.733c-33.784,5.459-67.155,11.939-100.389,20.102
		C74.731,453.03,76.162,445.115,78.923,429.285 M60.696,484.645c-0.251,0.062-0.503,0.091-0.755,0.091
		c-0.805,0-1.592-0.308-2.188-0.878c-0.782-0.747-1.127-1.844-0.916-2.903c3.231-16.254,4.644-24.129,7.326-39.501
		c0.299-1.722,1.944-2.862,3.662-2.574c1.721,0.301,2.874,1.94,2.574,3.662c-2.409,13.81-3.799,21.593-6.392,34.784
		c33.751-8.129,76.251-16.765,107.459-21.808c28.553-3.786,54.261-15.357,72.476-32.595c1.272-1.199,3.275-1.144,4.474,0.125
		c1.202,1.27,1.146,3.272-0.124,4.475c-19.174,18.144-46.132,30.311-75.906,34.257C139.913,467.028,94.993,476.222,60.696,484.645
		 M151.832,514.991c-1.093,9.11-8.682,17.498-18.055,20.03l-12.531,3.387l4.317-31.648l11.802-3.13
		c4.749-1.261,8.818-0.689,11.462,1.609C151.265,507.357,152.332,510.821,151.832,514.991 M190.879,501.488
		c-0.433,4.493-2.877,8.27-6.911,10.774l6.269,9.422l-8.896,1.917l-5.323-8.3l-4.223,0.905l-1.04,9.678l-7.803,1.68l3.477-31.214
		l13.718-2.903c3.858-0.813,6.78-0.368,8.69,1.323C190.458,496.207,191.165,498.531,190.879,501.488 M224.099,515.929l-2.177-6.28
		l-11.544,1.856l-3.256,7.164l-8.109,1.31l15.7-33.167l6.682-1.057l10.716,28.881L224.099,515.929z M271.611,505.744l-0.186,0.173
		c-3.878,3.611-8.281,5.701-13.085,6.209c-0.669,0.072-1.326,0.106-1.97,0.106c-3.756,0-7.043-1.195-9.398-3.451
		c-2.723-2.608-4.07-6.493-3.791-10.937l0.005-0.086c0.548-8.733,7.835-16.29,16.592-17.201c4.904-0.509,8.248,0.333,11.554,2.905
		l0.498,0.386l-5,6.226l-0.481-0.368c-2.009-1.537-3.792-2.361-6.959-2.031c-4.285,0.446-7.994,4.652-8.27,9.375
		c-0.153,2.614,0.581,4.789,2.06,6.199c1.387,1.323,3.307,1.896,5.554,1.662c2.138-0.226,4.065-0.953,5.593-2.111l0.158-3.208
		l-6.444,0.678l0.364-6.834l13.828-1.45L271.611,505.744z M329.379,484.02l-15.601,0.418l-0.093,4.926l13.792-0.371l-0.071,7.083
		l-13.855,0.373l-0.216,11.434l-7.68,0.206l0.699-30.446l23.088-0.615L329.379,484.02z M363.386,507.908l-2.751-6.705l-11.473-0.266
		l-2.646,6.578l-7.899-0.186l12.874-30.329l6.64,0.151l13.354,30.944L363.386,507.908z M370.639,447.362h-0.037
		c-30.816-0.346-68.344,0.476-95.605,2.091c-0.063,0.005-0.125,0.007-0.187,0.007c-0.832,0-1.633-0.328-2.227-0.917
		c-0.639-0.632-0.979-1.508-0.934-2.406c0.242-4.874,0.431-8.189,0.587-10.928c0.335-5.876,0.519-9.113,0.759-19.651
		c0.04-1.746,1.503-3.176,3.236-3.091c1.748,0.039,3.132,1.488,3.093,3.236c-0.243,10.645-0.43,13.921-0.768,19.866
		c-0.114,2.011-0.247,4.335-0.406,7.364c27.043-1.491,62.88-2.232,92.522-1.901c1.748,0.021,3.149,1.453,3.131,3.2
		C373.781,445.969,372.369,447.362,370.639,447.362 M403.63,510.372l-13.721-18.466l0.516,17.435l-7.598-0.595l-0.78-30.476
		l6.789,0.521l13.117,17.563l-0.629-16.606l7.489,0.577l1.281,30.555L403.63,510.372z M419.847,334.777
		c-9.123-0.758-15.611-0.988-23.123-1.258c-3.7-0.131-7.567-0.27-12.001-0.482c-1.619-0.078-2.915-1.364-3.009-2.981l-0.885-15.436
		c-14.097-0.612-19.234-0.759-31.798-0.782c-0.001,7.409-0.002,14.605-0.002,22.501c16.704-0.008,25.058,0.174,41.752,0.909
		c0.136,15.935,0.169,19.516,0.315,35.451c-16.822-0.759-25.239-0.945-42.071-0.938v6.195c10.519,0.112,18.784,0.502,28.8,0.979
		c2.7,0.128,5.544,0.264,8.609,0.402c1.747,0.078,3.098,1.557,3.02,3.304c-0.077,1.698-1.478,3.022-3.16,3.022
		c-0.048,0-0.097-0.001-0.146-0.003c-3.07-0.139-5.918-0.273-8.623-0.402c-9.925-0.472-18.119-0.859-28.501-0.972
		c-0.001,3.346-0.001,6.755-0.002,11.211c8.519-0.005,12.778,0.043,21.296,0.236c0.114,15.432,0.187,23.147,0.435,38.579
		c-29.15-0.327-58.07,0.372-87.171,2.097c0.769-15.456,0.998-23.184,1.35-38.641c7.197-0.507,10.797-0.725,18-1.091
		c0.438-32.089,0.603-64.182,1.083-96.271c-7.036,0.338-10.553,0.54-17.583,1.009c0.383-15.357,0.634-23.035,1.455-38.393
		c46.021-2.555,91.498-2.208,137.472,1.053c1.258,19.397,1.916,38.828,2.288,58.262c-13.681-1.137-20.527-1.581-34.229-2.22
		c-0.539-6.95-0.813-10.425-1.381-17.375c-17.194-0.773-25.8-0.964-43.006-0.956c0,1.948,0,3.842-0.001,5.718
		c13.462,0.017,18.74,0.205,34.933,0.917c1.623,0.071,2.929,1.36,3.021,2.98l0.885,15.443c3.253,0.14,6.216,0.247,9.078,0.349
		c7.276,0.26,14.15,0.504,23.422,1.275c1.742,0.145,3.037,1.674,2.894,3.417c-0.139,1.652-1.522,2.902-3.151,2.902
		C420.024,334.789,419.936,334.785,419.847,334.777 M438.766,514.293l-7.71-0.996l-1.313-23.52l-8.786-1.119l-0.356-7.126
		l25.099,3.183l0.467,7.151l-8.809-1.122L438.766,514.293z M481.86,521.303l-3.273-7.239l-11.552-2.083l-2.163,6.247l-7.839-1.418
		l10.649-28.72l6.686,1.187l0.137,0.291l15.653,33.236L481.86,521.303z M521.132,527.113c-1.232,1.096-2.949,1.65-5.06,1.65
		c-1.1,0-2.307-0.15-3.607-0.454c-4.79-1.117-9.519-3.94-13.316-7.951l-0.389-0.411l4.161-4.73l0.47,0.466
		c3.116,3.099,5.931,4.859,8.857,5.54c1.365,0.316,2.42,0.256,2.895-0.163c0.249-0.22,0.345-0.558,0.294-1.031
		c-0.154-1.425-1.05-2.421-5.989-4.796c-5.82-2.79-10.323-5.435-10.955-11.844c-0.261-2.631,0.416-4.69,1.947-6.039
		c1.806-1.59,4.669-2.038,8.059-1.262c4.214,0.963,8.082,3.108,11.498,6.377l0.378,0.36l-3.478,5.165l-0.53-0.46
		c-2.925-2.541-5.419-4.021-7.627-4.529c-1.138-0.261-2.031-0.201-2.448,0.169c-0.22,0.194-0.311,0.49-0.271,0.881
		c0.172,1.676,1.242,2.492,6.364,4.944c5.929,2.862,10.008,5.939,10.649,11.657C523.356,523.52,522.695,525.725,521.132,527.113
		 M553.209,538.537l-7.844-2.227l-1.551-12.331l-14.243-22.542l9.26,2.578l8.054,13.25l5.275-9.535l8.571,2.387l-9.199,15.479
		L553.209,538.537z M623.063,478.642c-0.354,1.443-1.648,2.411-3.071,2.411c-0.25,0-0.503-0.029-0.757-0.09
		c-51.449-12.621-110.631-22.896-171.146-29.714c-1.516-0.17-2.692-1.396-2.802-2.918c-1.144-15.935-1.496-23.691-2.082-38.846
		c-0.065-1.746,1.294-3.218,3.041-3.284c1.726-0.145,3.218,1.294,3.285,3.04c0.549,14.225,0.893,21.897,1.884,36.016
		c59.869,6.847,118.362,17.056,169.329,29.558C622.441,475.229,623.479,476.943,623.063,478.642 M623.41,468.86
		c-54.747-13.428-110.078-22.321-166.065-28.631c-1.113-15.496-1.478-23.244-2.077-38.74c7.367,0.774,11.121,1.195,18.715,2.104
		c-1.501-32.082-2.553-64.181-4.104-96.262c-7.509-0.897-11.24-1.311-18.625-2.067c-0.626-15.593-1.013-23.391-2.188-38.985
		c27.74,3.088,55.214,6.998,82.713,11.774c2.284,15.753,3.266,23.63,5.111,39.383c-7.896-1.449-11.862-2.135-19.784-3.43
		c0.213,2.224,0.401,4.45,0.607,6.675c5.984,1.045,12.168,2.138,17.315,3.056c1.722,0.306,2.867,1.95,2.561,3.67
		c-0.272,1.534-1.607,2.611-3.112,2.611c-0.185,0-0.371-0.016-0.559-0.05c-4.661-0.831-10.172-1.806-15.611-2.757
		c2.422,26.857,4.485,53.745,7.007,80.593c14.864,2.35,29.727,5.015,44.475,8.014c-0.696-11.008-1.015-16.513-1.663-27.525
		c17.419,3.566,26.038,5.524,42.539,9.789C614.683,421.724,618.877,445.312,623.41,468.86"/>
	<path clip-path="url(#SVGID_2_)" fill="#F172A4" d="M671.455,518.443l-42.29-251.192l-1.03-6.112l-5.732-2.36l-5.306-2.184
		c-2.782-1.145-44.499-18.017-114.158-30.972l-70.196-44.031l-2.399,8.749l-0.685,2.498l44.561,27.951
		c-7.998-1.208-16.284-2.344-24.845-3.389l-26.511-16.675l-7.43-2.967c-19.972-7.972-38.926-12.587-76.714-12.587
		s-56.743,4.615-76.714,12.587l-7.43,2.966l-26.511,16.676c-8.56,1.045-16.847,2.181-24.844,3.389l44.56-27.95l-0.685-2.499
		l-2.398-8.749l-70.197,44.031c-69.659,12.955-111.375,29.827-114.157,30.971l-5.307,2.185l-5.732,2.36l-1.029,6.112L5.985,518.443
		l-0.854,5.071l3.3,3.945l22.547,26.96l4.761,5.693l7.093-2.186l20.348-6.27l-4.822,30.402l-2.944,18.564l17.712-6.294l16.396-5.826
		c0.344-0.121,10.061-3.523,26.476-8.395l216.977,130.182l5.745,3.447l5.745-3.447L561.441,580.11
		c16.417,4.871,26.137,8.274,26.48,8.396l16.394,5.824l17.712,6.294l-2.943-18.565l-4.823-30.401l20.348,6.27l7.094,2.186
		l4.76-5.693l22.547-26.96l3.3-3.945L671.455,518.443z M338.72,700.717L130.669,575.891c4.339-1.21,8.957-2.465,13.841-3.75
		l194.21,116.521l194.21-116.521c4.884,1.285,9.502,2.54,13.84,3.75L338.72,700.717z M243.292,606.442l-8.468-6.153l-8.469,6.153
		l3.235-9.956l-8.468-6.152h10.467l3.235-9.955l3.234,9.955h10.468l-8.468,6.152L243.292,606.442z M280.81,586.221
		c0.309,0.153,1.047,0.204,1.661,0.204h5.475c0.8,0,0.86,0.256,0.86,2.399c0,2.451-0.06,2.604-0.799,2.604h-11.81
		c-0.861,0-1.723,0-2.029-0.308c-0.37-0.356-0.308-1.121-0.308-1.785v-32.822c0-0.713,0.308-0.815,3.076-0.815
		c3.137,0,3.505,0.051,3.505,0.867v27.87C280.441,585.098,280.38,585.966,280.81,586.221 M276.951,616.742l4.135-12.729
		l4.136,12.729h13.384l-10.828,7.868l4.136,12.728l-10.828-7.867l-10.827,7.867l4.136-12.728l-10.828-7.868H276.951z
		 M300.741,569.988c0.431,0.256,0.862,0.205,1.354,0.205h2.952c0.738,0,0.801,0.306,0.801,2.553c0,2.144,0,2.45-0.801,2.45h-2.768
		c-0.614,0-1.292,0.05-1.538,0.152c-0.553,0.306-0.43,0.816-0.43,1.48v7.605c0,0.663,0,1.635,0.307,1.786
		c0.308,0.153,1.17,0.204,1.846,0.204h5.844c0.738,0,0.799,0.204,0.799,2.451c0,2.348-0.061,2.552-0.739,2.552h-11.81
		c-0.983,0-2.03,0.103-2.46-0.204c-0.492-0.357-0.369-1.123-0.369-1.735v-32.26c0-0.664,0.063-0.716,0.432-1.124
		c0.367-0.407,0.799-0.407,1.414-0.407h12.733c0.738,0,0.738,0.407,0.738,2.398c0,2.298,0,2.604-0.801,2.604h-6.15
		c-0.492,0-1.231,0.051-1.415,0.255c-0.308,0.357-0.308,0.308-0.308,0.97v6.739C300.372,569.121,300.249,569.684,300.741,569.988
		 M346.633,586.018c1.968,0,2.277-1.379,2.277-2.043v-6.687c0-0.459-0.187-0.611-0.554-0.715c-0.616-0.152-1.354-0.152-1.663-0.305
		c-0.243-0.204-0.243-0.716-0.243-1.532c0-0.867,0-1.43,0.243-1.531c0.802-0.459,3.508-0.511,5.968-0.459
		c2.462,0.051,2.953,0.356,2.953,1.072v16.589c0,0.255,0,0.816-0.491,0.969c-0.37,0.154-0.863,0-1.292,0
		c-0.616,0-1.108-1.837-1.724-2.092c-0.677-0.153-1.23,2.144-5.475,2.144c-5.719,0-8.918-3.471-8.918-7.146v-21.387
		c0-3.522,3.075-7.197,8.918-7.197c5.967,0,8.981,3.675,8.981,7.197v2.756c0,0.46-0.555,0.663-3.69,0.663
		c-2.153,0-2.954,0.052-2.954-0.51c0-0.715-0.06-2.193-0.06-2.706c0-0.715-0.616-2.144-2.277-2.144c-1.845,0-2.337,1.633-2.337,2.91
		v19.243C344.296,584.435,344.48,586.018,346.633,586.018 M338.012,620.824l5.553,17.088h17.967l-14.535,10.561l5.552,17.088
		L338.012,655l-14.535,10.561l5.552-17.088l-14.535-10.561h17.967L338.012,620.824z M329.592,591.428
		c-1.783,0-2.952,0.103-3.075-0.611c-0.492-2.859-0.738-4.799-1.231-7.606c-0.06-0.511-0.799-0.408-1.784-0.408
		c-1.167,0-1.783-0.103-1.844,0.408c-0.369,2.859-0.615,4.747-0.924,7.707c-0.06,0.562-1.414,0.511-3.382,0.511
		c-0.923,0-3.075,0-3.014-0.46c2.276-13.322,3.876-22.255,5.906-34.556c0.121-0.715,1.844-0.767,3.198-0.767
		c1.538,0,3.198,0.052,3.321,0.919c2.399,13.067,3.752,21.031,6.213,34.353C333.099,591.479,331.253,591.428,329.592,591.428
		 M371.671,586.018c1.968,0,2.337-1.431,2.337-2.859v-26.646c0-0.713,0.308-0.815,3.077-0.815c3.198,0,3.566,0.152,3.566,0.766
		v27.818c0,4.236-3.261,7.146-8.98,7.146c-5.597,0-8.919-3.37-8.919-7.095v-27.769c0-0.816,0.43-0.867,3.444-0.867
		c2.46,0,3.139,0.103,3.139,0.867v26.594C369.335,584.537,369.641,586.018,371.671,586.018 M395.231,569.988
		c0.433,0.256,0.861,0.205,1.354,0.205h2.952c0.737,0,0.8,0.306,0.8,2.553c0,2.144,0,2.45-0.8,2.45h-2.77
		c-0.613,0-1.291,0.05-1.537,0.152c-0.553,0.306-0.43,0.816-0.43,1.48v7.605c0,0.663,0,1.635,0.307,1.786
		c0.31,0.153,1.17,0.204,1.847,0.204h5.843c0.739,0,0.799,0.204,0.799,2.451c0,2.348-0.06,2.552-0.738,2.552h-11.81
		c-0.983,0-2.03,0.103-2.46-0.204c-0.492-0.357-0.369-1.123-0.369-1.735v-32.26c0-0.664,0.063-0.716,0.432-1.124
		c0.367-0.407,0.8-0.407,1.414-0.407h12.732c0.739,0,0.739,0.407,0.739,2.398c0,2.298,0,2.604-0.802,2.604h-6.149
		c-0.493,0-1.231,0.051-1.415,0.255c-0.309,0.357-0.309,0.308-0.309,0.97v6.739C394.862,569.121,394.739,569.684,395.231,569.988
		 M392.217,616.742l4.137-12.729l4.135,12.729h13.385l-10.828,7.868l4.136,12.728l-10.827-7.867l-10.828,7.867l4.137-12.728
		l-10.827-7.868H392.217z M451.085,606.442l-8.468-6.153l-8.47,6.153l3.234-9.956l-8.467-6.152h10.466l3.236-9.955l3.233,9.955
		h10.468l-8.469,6.152L451.085,606.442z M637.896,547.256l-37.472-11.545l7.629,48.099l-16.397-5.825
		c-1.272-0.453-128.613-45.187-252.937-45.187c-124.322,0-251.665,44.733-252.937,45.187l-16.396,5.825l7.628-48.099l-37.472,11.545
		l-22.546-26.96l42.291-251.191l5.306-2.184c4.42-1.819,109.074-44.142,269.077-45.021c17.276,0.232,35.286,0.64,53.227,1.252
		c135.453,7.143,221.938,42.119,225.948,43.769l5.307,2.184l42.29,251.191L637.896,547.256z"/>
	<path clip-path="url(#SVGID_2_)" fill="#F172A4" d="M290.304,166.031c-2.715,0.459-5.397,0.952-8.045,1.482
		c-0.291,0.058-0.58,0.119-0.87,0.178c-2.647,0.539-5.27,1.101-7.855,1.707c-0.053,0.012-0.106,0.026-0.161,0.039
		c-2.366,0.556-4.7,1.148-7.018,1.757c-0.618,0.163-1.239,0.323-1.855,0.489c-2.134,0.577-4.247,1.177-6.342,1.796
		c-0.317,0.094-0.643,0.177-0.958,0.272l-0.055,0.033c-0.927,0.279-1.859,0.553-2.779,0.839l0.212,0.772l3.083,11.248l0.205,0.745
		c10.676-4.262,21.095-7.576,33.558-9.841c2.394-0.435,4.865-0.831,7.427-1.188c0.002-0.001,0.004-0.001,0.006-0.001
		c0.849-0.119,1.709-0.232,2.579-0.342c0.006-0.001,0.013-0.002,0.019-0.003c0.854-0.107,1.719-0.21,2.594-0.309
		c0.025-0.003,0.049-0.006,0.075-0.009c0.865-0.098,1.742-0.19,2.628-0.28c0.035-0.003,0.069-0.007,0.104-0.01
		c0.87-0.088,1.754-0.171,2.646-0.25c0.054-0.005,0.107-0.01,0.162-0.015c0.856-0.075,1.725-0.146,2.603-0.214
		c0.097-0.008,0.19-0.016,0.287-0.023c0.838-0.064,1.689-0.124,2.546-0.181c0.142-0.009,0.28-0.02,0.422-0.029
		c0.843-0.055,1.699-0.105,2.562-0.154c0.16-0.009,0.316-0.019,0.476-0.028c0.834-0.045,1.682-0.086,2.535-0.126
		c0.201-0.009,0.396-0.02,0.598-0.028c0.797-0.036,1.609-0.066,2.423-0.096c0.269-0.01,0.53-0.022,0.801-0.031
		c0.785-0.027,1.587-0.049,2.389-0.072c0.307-0.008,0.606-0.019,0.916-0.026c0.783-0.02,1.584-0.035,2.384-0.05
		c0.342-0.007,0.675-0.015,1.019-0.021c0.855-0.014,1.728-0.023,2.602-0.031c0.3-0.003,0.591-0.009,0.892-0.011
		c1.183-0.009,2.383-0.014,3.601-0.014c1.217,0,2.417,0.005,3.601,0.014c0.3,0.002,0.591,0.008,0.89,0.011
		c0.874,0.008,1.748,0.017,2.604,0.031c0.344,0.006,0.676,0.014,1.015,0.021c0.802,0.015,1.604,0.03,2.389,0.05
		c0.309,0.007,0.608,0.018,0.914,0.026c0.803,0.023,1.606,0.045,2.392,0.072c0.27,0.009,0.529,0.021,0.798,0.031
		c0.813,0.03,1.629,0.06,2.425,0.096c0.204,0.008,0.4,0.02,0.603,0.029c0.853,0.039,1.699,0.08,2.531,0.125
		c0.158,0.009,0.313,0.019,0.47,0.028c0.865,0.048,1.725,0.098,2.568,0.154c0.143,0.009,0.281,0.02,0.422,0.029
		c0.858,0.057,1.708,0.117,2.546,0.181c0.097,0.007,0.19,0.015,0.287,0.023c0.877,0.068,1.746,0.139,2.603,0.214
		c0.055,0.005,0.108,0.01,0.162,0.015c0.893,0.079,1.775,0.162,2.646,0.25c0.034,0.003,0.069,0.007,0.104,0.01
		c0.888,0.09,1.764,0.182,2.628,0.28c0.025,0.003,0.052,0.006,0.075,0.009c0.875,0.099,1.739,0.202,2.593,0.309
		c0.01,0.001,0.018,0.003,0.026,0.004c0.868,0.109,1.727,0.222,2.572,0.341c0.003,0,0.005,0,0.007,0.001
		c2.563,0.357,5.032,0.753,7.427,1.188c12.463,2.265,22.882,5.579,33.56,9.841l3.496-12.753c-0.906-0.281-1.823-0.551-2.735-0.825
		l-0.054-0.033c-0.322-0.097-0.653-0.182-0.976-0.277c-2.099-0.621-4.216-1.223-6.354-1.802c-0.6-0.162-1.205-0.317-1.808-0.476
		c-2.355-0.621-4.727-1.223-7.132-1.788c-0.011-0.003-0.02-0.005-0.031-0.007c-2.644-0.621-5.326-1.198-8.034-1.749
		c-0.223-0.045-0.442-0.092-0.663-0.136c-2.721-0.546-5.477-1.053-8.267-1.524c-0.058-0.01-0.111-0.022-0.17-0.031l0.007,0.004
		c-14.904-2.506-30.836-3.925-48.134-3.925c-17.291,0-33.218,1.415-48.12,3.916l0.012-0.008
		C290.508,165.992,290.408,166.013,290.304,166.031"/>
	<path clip-path="url(#SVGID_2_)" fill="#F172A4" d="M247.679,150.49l0.067-0.014l3.683,13.433
		c11.766-3.63,23.593-6.478,35.572-8.581c1.829-0.321,3.662-0.625,5.498-0.91c0.232-0.036,0.463-0.075,0.695-0.111
		c4.278-0.655,8.576-1.216,12.902-1.681c0.216-0.023,0.433-0.042,0.648-0.065c1.888-0.199,3.78-0.379,5.678-0.541
		c8.645-0.741,17.398-1.12,26.298-1.12c8.92,0,17.505,0.386,25.81,1.088l0.007,0.005c9.198,0.778,18.039,1.955,26.559,3.478
		l-0.008-0.006c12.248,2.192,23.844,5.086,34.905,8.509l3.701-13.499l0.066,0.015l23.003-83.904
		c0.608-2.221-1.699-4.103-3.756-3.066c-3.352,1.69-7.655,4.632-10.711,9.485c-2.439,3.874-4.878,9.298-4.632,17.922
		c0.125,4.384-0.673,8.749-2.332,12.808c-1.378,3.375-2.93,6.96-4.685,10.504c1.157-12.429-3.475-23.102-12.286-26.221
		c-4.16-1.477-8.705-1.1-13.142,1.081c-1.589,0.782-3.126,1.796-4.596,2.991c-1.595-16.916-10.008-29.609-21.427-30.609
		c-4.803-0.433-9.571,1.248-13.806,4.827c-5.577,4.711-9.877,12.394-12.276,21.548c-0.772-3.961-1.433-7.934-1.995-11.806
		l5.998-11.292l-7.128-11.024c0.519-2.524,1.341-4.988,2.487-7.326c1.983-4.049,3.457-8.739,3.457-13.746
		c0-10.239-6.163-19.181-10.254-23.99c-1.867-2.195-5.236-2.195-7.104,0c-4.09,4.809-10.254,13.751-10.254,23.99
		c0,5.563,1.818,10.738,4.135,15.077c1.135,2.125,1.972,4.375,2.543,6.689l-6.679,10.33l5.996,11.291
		c-0.562,3.87-1.223,7.839-1.994,11.798c-2.4-9.15-6.698-16.83-12.274-21.539c-4.238-3.58-9.03-5.252-13.804-4.827
		c-11.42,1-19.835,13.694-21.431,30.609c-1.469-1.194-3.006-2.208-4.594-2.99c-4.434-2.182-8.981-2.556-13.143-1.082
		c-8.813,3.119-13.443,13.793-12.285,26.224c-1.755-3.545-3.308-7.131-4.686-10.507c-1.658-4.059-2.456-8.424-2.331-12.808
		c0.246-8.624-2.193-14.048-4.632-17.922c-3.056-4.853-7.359-7.795-10.711-9.485c-2.057-1.037-4.365,0.845-3.756,3.066
		L247.679,150.49z M395.447,113.657c2.223-6.811,6.324-12.382,10.706-14.54c1.099-0.54,2.119-0.813,3.051-0.813
		c0.503,0,0.981,0.079,1.43,0.24c4.462,1.58,6.854,11.314,3.373,21.979c-2.223,6.813-6.327,12.384-10.706,14.54
		c-1.693,0.835-3.199,1.028-4.482,0.575C394.355,134.057,391.966,124.32,395.447,113.657 M358.334,100.036
		c0.871-10.777,4.9-20.668,10.263-25.198c1.773-1.497,3.504-2.254,5.157-2.254c0.157,0,0.313,0.008,0.467,0.021
		c6.445,0.563,12.661,13.467,11.335,29.89v0.001c-0.871,10.776-4.896,20.667-10.262,25.197c-1.939,1.64-3.832,2.38-5.624,2.235
		C363.228,129.362,357.01,116.458,358.334,100.036 M303.22,72.604c1.808-0.149,3.685,0.594,5.623,2.233
		c5.364,4.53,9.391,14.421,10.262,25.198c1.325,16.423-4.89,29.327-11.335,29.892c-1.793,0.143-3.684-0.595-5.624-2.234
		c-5.363-4.531-9.392-14.422-10.263-25.199v0.001C290.559,86.071,296.775,73.167,303.22,72.604 M266.805,98.543
		c1.279-0.458,2.79-0.26,4.483,0.573c4.379,2.158,8.481,7.729,10.704,14.54c3.48,10.664,1.091,20.4-3.373,21.981
		c-1.274,0.453-2.783,0.261-4.48-0.575c-4.379-2.156-8.482-7.727-10.706-14.54C259.953,109.857,262.343,100.124,266.805,98.543"/>
	<polygon clip-path="url(#SVGID_2_)" fill="#F172A4" points="469.29,505.417 475.17,506.473 471.638,498.688 	"/>
	<polygon clip-path="url(#SVGID_2_)" fill="#F172A4" points="351.916,494.051 357.772,494.186 354.789,486.947 	"/>
</g>
</svg>
